#!OML:ASF X:\für Bonn\!DataBase\2005_08_11_Bastian_Final\c3d\Bastian.ASF
:FULLY-SPECIFIED
:DEGREES
63
root -0.229726 11.4605 6.10887 168.678 -9.75767 -175.79
lowerback 19.9927 -3.26764 2.58754
upperback 4.66299 -4.49959 0.169173
thorax -6.26656 -2.53802 -0.127786
lowerneck -6.2695 -8.61057 -4.88333
upperneck -8.62071 -9.97921 12.3925
head -0.711107 -4.61358 4.75439
rclavicle 1.11816e-014 1.66979e-014
rhumerus 66.4106 12.6108 -7.04082
rradius 40.2123
rwrist -44.8411
rhand -40.8346 -4.51342
rfingers 7.12502
rthumb -13.7722 -34.0376
lclavicle 1.11816e-014 1.66979e-014
lhumerus 62.0768 -12.0219 -0.19659
lradius 33.3298
lwrist -0.188101
lhand -42.3858 8.72528
lfingers 7.12502
lthumb -15.2668 38.1419
rfemur -38.8745 -20.2622 24.5469
rtibia 115.417
rfoot -47.0078 -6.48546
rtoes -3.79932
lfemur -43.2047 4.00848 -13.9909
ltibia 117.8
lfoot -41.4246 -18.3607
ltoes -3.78468
64
root -0.226847 11.2412 6.11224 168.684 -9.67343 -175.725
lowerback 20.3038 -3.23378 2.60201
upperback 4.59302 -4.43853 0.202536
thorax -6.5026 -2.5084 -0.0924331
lowerneck -6.35255 -7.46285 -4.90748
upperneck -8.96482 -10.193 12.2629
head -0.817122 -5.53329 4.73024
rclavicle -3.97569e-016 -5.56597e-015
rhumerus 66.4333 12.3853 -6.51288
rradius 40.2044
rwrist -45.2755
rhand -40.7142 -4.63635
rfingers 7.12502
rthumb -13.6562 -34.1684
lclavicle -3.97569e-016 -5.56597e-015
lhumerus 62.1549 -11.832 -0.792999
lradius 33.372
lwrist -0.174307
lhand -42.2321 8.97674
lfingers 7.12502
lthumb -15.1187 38.4045
rfemur -40.1608 -20.8588 24.5631
rtibia 117.916
rfoot -47.1004 -6.31362
rtoes -4.40668
lfemur -44.4282 4.721 -13.6716
ltibia 120.088
lfoot -41.6991 -18.7935
ltoes -4.11083
65
root -0.224689 11.015 6.11528 168.692 -9.57322 -175.68
lowerback 20.6027 -3.18717 2.61064
upperback 4.52917 -4.36379 0.217601
thorax -6.72647 -2.4722 -0.0785577
lowerneck -6.50922 -7.4589 -4.75705
upperneck -9.01356 -10.2063 12.1957
head -0.817074 -5.54671 4.67138
rclavicle -2.09221e-014 6.75868e-015
rhumerus 66.448 12.1401 -5.90485
rradius 40.1899
rwrist -45.7955
rhand -40.6321 -4.7554
rfingers 7.12502
rthumb -13.577 -34.2927
lclavicle -2.09221e-014 6.75868e-015
lhumerus 62.2289 -11.5918 -1.11087
lradius 33.3272
lwrist -0.368152
lhand -42.0883 9.05727
lfingers 7.12502
lthumb -14.9802 38.4955
rfemur -41.4136 -21.5696 24.5226
rtibia 120.411
rfoot -47.2232 -6.15451
rtoes -5.17161
lfemur -45.639 5.53947 -13.3515
ltibia 122.374
lfoot -41.9983 -19.2921
ltoes -4.34261
66
root -0.222977 10.7856 6.11908 168.682 -9.47498 -175.591
lowerback 20.955 -3.15246 2.64625
upperback 4.4591 -4.29652 0.257323
thorax -6.98528 -2.44055 -0.048307
lowerneck -6.75476 -7.45569 -4.61864
upperneck -8.98951 -10.2216 12.1236
head -0.777034 -5.55577 4.60557
rclavicle -1.78409e-014 1.27222e-014
rhumerus 66.5007 11.915 -5.34109
rradius 40.124
rwrist -46.2597
rhand -40.6099 -4.81418
rfingers 7.12502
rthumb -13.5557 -34.3529
lclavicle -1.78409e-014 1.27222e-014
lhumerus 62.2537 -11.2799 -1.00563
lradius 33.1977
lwrist -0.83584
lhand -41.8961 9.0177
lfingers 7.12502
lthumb -14.7951 38.4696
rfemur -42.6091 -22.3994 24.4892
rtibia 122.852
rfoot -47.3324 -5.99131
rtoes -5.90573
lfemur -46.8394 6.45324 -12.956
ltibia 124.654
lfoot -42.2459 -19.859
ltoes -4.32905
67
root -0.221472 10.5515 6.12358 168.667 -9.36339 -175.543
lowerback 21.3494 -3.10962 2.64278
upperback 4.39398 -4.22845 0.28247
thorax -7.25954 -2.40859 -0.0100693
lowerneck -7.08558 -7.44394 -4.48459
upperneck -8.88111 -10.2272 12.0552
head -0.69493 -5.55441 4.53495
rclavicle 3.31473e-014 -7.95139e-015
rhumerus 66.568 11.7002 -4.87697
rradius 39.9981
rwrist -46.6233
rhand -40.6402 -4.78799
rfingers 7.12502
rthumb -13.5849 -34.3248
lclavicle 3.31473e-014 -7.95139e-015
lhumerus 62.2649 -10.9554 -0.854198
lradius 33.0561
lwrist -1.24456
lhand -41.728 8.86836
lfingers 7.12502
lthumb -14.6331 38.3321
rfemur -43.7551 -23.3649 24.3496
rtibia 125.254
rfoot -47.4068 -5.69465
rtoes -6.5955
lfemur -48.0356 7.49829 -12.5555
ltibia 126.929
lfoot -42.4289 -20.6107
ltoes -3.90894
68
root -0.220809 10.3186 6.12745 168.633 -9.26567 -175.52
lowerback 21.757 -3.06528 2.617
upperback 4.33364 -4.16424 0.307734
thorax -7.53427 -2.3784 0.0419428
lowerneck -7.35929 -7.43791 -4.3877
upperneck -8.80249 -10.2358 11.9843
head -0.630646 -5.55486 4.47468
rclavicle 2.43511e-014 -4.37326e-015
rhumerus 66.6383 11.4824 -4.40869
rradius 39.8595
rwrist -46.9191
rhand -40.6597 -4.79541
rfingers 7.12502
rthumb -13.6036 -34.3309
lclavicle 2.43511e-014 -4.37326e-015
lhumerus 62.3048 -10.7568 -1.13668
lradius 33.0401
lwrist -1.09622
lhand -41.68 8.82912
lfingers 7.12502
lthumb -14.5869 38.2962
rfemur -44.7833 -24.4772 24.0774
rtibia 127.573
rfoot -47.479 -5.20378
rtoes -6.85254
lfemur -49.1731 8.6098 -12.1515
ltibia 129.154
lfoot -42.5878 -21.4309
ltoes -3.21367
69
root -0.219725 10.0878 6.13139 168.624 -9.1626 -175.539
lowerback 22.1078 -3.01333 2.55727
upperback 4.28981 -4.10273 0.302164
thorax -7.76162 -2.34895 0.0757
lowerneck -7.5806 -7.42483 -4.26235
upperneck -8.76361 -10.2381 11.9319
head -0.589653 -5.55685 4.4204
rclavicle 4.32357e-014 -1.15295e-014
rhumerus 66.7058 11.2421 -3.80593
rradius 39.7609
rwrist -47.3817
rhand -40.7626 -4.83157
rfingers 7.12502
rthumb -13.7028 -34.3604
lclavicle 4.32357e-014 -1.15295e-014
lhumerus 62.4064 -10.5949 -1.8479
lradius 33.0943
lwrist -0.511627
lhand -41.6998 8.83363
lfingers 7.12502
lthumb -14.606 38.2993
rfemur -45.7983 -25.7492 23.6931
rtibia 129.84
rfoot -47.595 -4.55913
rtoes -6.96226
lfemur -50.318 9.84529 -11.7855
ltibia 131.328
lfoot -42.6951 -22.2092
ltoes -2.60087
70
root -0.219429 9.86295 6.13511 168.59 -9.05881 -175.56
lowerback 22.4649 -2.95179 2.50958
upperback 4.25239 -4.02769 0.296674
thorax -7.98566 -2.31371 0.0983333
lowerneck -7.67534 -7.42074 -4.20656
upperneck -8.77923 -10.2424 11.9197
head -0.581981 -5.5619 4.40149
rclavicle 2.5196e-014 -9.14409e-015
rhumerus 66.7569 11.0022 -3.15768
rradius 39.6447
rwrist -47.8442
rhand -40.8252 -4.8719
rfingers 7.12502
rthumb -13.7632 -34.3967
lclavicle 2.5196e-014 -9.14409e-015
lhumerus 62.5458 -10.4483 -2.6653
lradius 33.1877
lwrist 0.272711
lhand -41.7242 8.80281
lfingers 7.12502
lthumb -14.6294 38.2668
rfemur -46.6715 -27.1825 23.206
rtibia 131.995
rfoot -47.7559 -3.78656
rtoes -6.8312
lfemur -51.3859 11.206 -11.3928
ltibia 133.429
lfoot -42.7769 -23.0179
ltoes -1.93418
71
root -0.218773 9.64857 6.1388 168.54 -8.96625 -175.572
lowerback 22.8674 -2.90078 2.46334
upperback 4.21455 -3.96649 0.294692
thorax -8.23415 -2.28558 0.130078
lowerneck -7.76627 -7.41543 -4.17404
upperneck -8.80479 -10.2438 11.9194
head -0.576501 -5.56575 4.39182
rclavicle 2.37051e-014 5.56597e-015
rhumerus 66.8296 10.7786 -2.47655
rradius 39.5174
rwrist -48.3279
rhand -40.9242 -4.92048
rfingers 7.12502
rthumb -13.8586 -34.4388
lclavicle 2.37051e-014 5.56597e-015
lhumerus 62.6519 -10.3025 -3.55741
lradius 33.2923
lwrist 1.12291
lhand -41.7661 8.82987
lfingers 7.12502
lthumb -14.6698 38.2909
rfemur -47.3741 -28.7594 22.6364
rtibia 134.035
rfoot -48.0256 -2.84984
rtoes -6.24923
lfemur -52.3825 12.6087 -10.9804
ltibia 135.422
lfoot -42.8442 -23.7965
ltoes -1.29168
72
root -0.217816 9.43724 6.14307 168.496 -8.85969 -175.59
lowerback 23.2587 -2.84221 2.39917
upperback 4.19186 -3.90276 0.299786
thorax -8.45828 -2.25663 0.177079
lowerneck -7.86786 -7.4096 -4.18002
upperneck -8.83681 -10.2425 11.9478
head -0.567669 -5.56813 4.39924
rclavicle -1.37161e-014 1.03368e-014
rhumerus 66.9139 10.5303 -1.85086
rradius 39.3934
rwrist -48.7683
rhand -40.978 -4.97736
rfingers 7.12502
rthumb -13.9104 -34.4921
lclavicle -1.37161e-014 1.03368e-014
lhumerus 62.7449 -10.1575 -4.45032
lradius 33.3786
lwrist 1.96572
lhand -41.8204 8.82117
lfingers 7.12502
lthumb -14.7221 38.2784
rfemur -47.9793 -30.5967 21.9564
rtibia 136.005
rfoot -48.4168 -1.86952
rtoes -5.54743
lfemur -53.3418 14.1873 -10.5395
ltibia 137.365
lfoot -42.9211 -24.5686
ltoes -0.615174
73
root -0.217826 9.22404 6.14667 168.444 -8.75786 -175.609
lowerback 23.647 -2.78654 2.34406
upperback 4.17576 -3.84275 0.301819
thorax -8.67432 -2.23007 0.215746
lowerneck -7.97488 -7.4046 -4.19425
upperneck -8.86078 -10.2413 11.9734
head -0.554958 -5.56962 4.40664
rclavicle -2.66371e-014 3.57812e-015
rhumerus 66.9836 10.308 -1.25082
rradius 39.2576
rwrist -49.1946
rhand -41.02 -5.01683
rfingers 7.12502
rthumb -13.9509 -34.5288
lclavicle -2.66371e-014 3.57812e-015
lhumerus 62.8271 -9.99276 -5.12777
lradius 33.3916
lwrist 2.48857
lhand -41.8331 8.89877
lfingers 7.12502
lthumb -14.7344 38.3551
rfemur -48.4189 -32.9047 21.0619
rtibia 137.952
rfoot -49.1077 -0.703034
rtoes -4.36673
lfemur -54.2867 15.9028 -10.064
ltibia 139.292
lfoot -42.9952 -25.3667
ltoes 0.0484615
74
root -0.217867 9.01063 6.15047 168.378 -8.62842 -175.579
lowerback 24.0469 -2.73121 2.3493
upperback 4.14953 -3.76661 0.309845
thorax -8.91033 -2.19707 0.222137
lowerneck -8.02719 -7.4118 -4.22426
upperneck -8.9111 -10.2534 12.0074
head -0.55782 -5.57913 4.42289
rclavicle 2.88735e-014 -2.10712e-014
rhumerus 67.0287 10.1527 -0.810444
rradius 39.092
rwrist -49.4865
rhand -41.0161 -5.05457
rfingers 7.12502
rthumb -13.9471 -34.5668
lclavicle 2.88735e-014 -2.10712e-014
lhumerus 62.8929 -9.88659 -5.61737
lradius 33.352
lwrist 2.76186
lhand -41.8706 9.0114
lfingers 7.12502
lthumb -14.7705 38.4651
rfemur -48.7282 -35.4403 20.1158
rtibia 139.863
rfoot -49.8204 0.431667
rtoes -3.101
lfemur -55.2077 17.8758 -9.46656
ltibia 141.214
lfoot -43.1127 -26.1366
ltoes 0.607063
75
root -0.218247 8.79623 6.15436 168.314 -8.52068 -175.571
lowerback 24.3622 -2.67398 2.33184
upperback 4.19371 -3.70742 0.307951
thorax -9.02306 -2.17562 0.227943
lowerneck -8.22571 -7.41022 -4.23026
upperneck -8.92046 -10.262 12.0435
head -0.523559 -5.58538 4.42694
rclavicle -4.37823e-014 1.31198e-014
rhumerus 67.0819 9.90199 -0.427608
rradius 38.9299
rwrist -49.8173
rhand -41.0181 -5.08171
rfingers 7.12502
rthumb -13.9491 -34.5938
lclavicle -4.37823e-014 1.31198e-014
lhumerus 62.9475 -9.68502 -5.95514
lradius 33.215
lwrist 2.70013
lhand -41.8929 9.19889
lfingers 7.12502
lthumb -14.792 38.651
rfemur -48.8726 -38.2824 18.966
rtibia 141.764
rfoot -50.6234 1.5376
rtoes -1.76556
lfemur -56.1026 19.9769 -8.85975
ltibia 143.118
lfoot -43.1998 -26.9854
ltoes 1.51169
76
root -0.218259 8.58338 6.15753 168.239 -8.40604 -175.563
lowerback 24.6752 -2.60409 2.29625
upperback 4.23489 -3.6349 0.324968
thorax -9.13495 -2.1472 0.260182
lowerneck -8.39078 -7.42047 -4.27405
upperneck -8.94395 -10.2809 12.0755
head -0.496999 -5.59579 4.4382
rclavicle -5.93869e-014 2.14687e-014
rhumerus 67.126 9.67441 0.08314
rradius 38.85
rwrist -50.3206
rhand -41.0687 -5.12812
rfingers 7.12502
rthumb -13.9978 -34.6368
lclavicle -5.93869e-014 2.14687e-014
lhumerus 63.0052 -9.51158 -6.3013
lradius 33.081
lwrist 2.62567
lhand -41.9171 9.51166
lfingers 7.12502
lthumb -14.8153 38.9621
rfemur -48.7673 -41.3955 17.6431
rtibia 143.62
rfoot -51.4745 2.42232
rtoes -0.484204
lfemur -56.9411 22.306 -8.19755
ltibia 144.997
lfoot -43.4076 -27.7199
ltoes 2.0363
